<svg xmlns="http://www.w3.org/2000/svg" xmlns:xlink="http://www.w3.org/1999/xlink" width="1920" zoomAndPan="magnify" viewBox="0 0 1440 809.999993" height="1080" preserveAspectRatio="xMidYMid meet" version="1.0"><defs><clipPath id="7ab6cda3e3"><path d="M 327.152344 39.914062 L 1102 39.914062 L 1102 769 L 327.152344 769 Z M 327.152344 39.914062 " clip-rule="nonzero"/></clipPath></defs><g clip-path="url(#7ab6cda3e3)"><path fill="#3ec674" d="M 831.871094 583.75 C 806.253906 587.167969 791.796875 588.296875 769.628906 598.179688 C 759.117188 602.867188 747.421875 612.84375 751.570312 623.574219 C 755.660156 634.164062 770.292969 633.886719 781.625 634.503906 C 808.78125 635.988281 832.589844 653.242188 851.417969 672.875 C 870.234375 692.503906 885.941406 715.207031 906.730469 732.738281 C 934.371094 756.027344 970.515625 769 1006.660156 768.605469 C 1019.746094 768.464844 1033.105469 766.527344 1044.675781 760.40625 C 1057.832031 753.445312 1067.683594 741.617188 1076.347656 729.507812 C 1084.71875 717.804688 1092.378906 705.398438 1096.878906 691.738281 C 1112.03125 645.746094 1086.777344 593.210938 1046.632812 566.132812 C 1058.242188 578.996094 1070.417969 593.339844 1071.390625 610.632812 C 1072.738281 634.574219 1050.402344 655.042969 1026.671875 658.460938 C 1002.941406 661.878906 979.167969 652.019531 959.082031 638.941406 C 938.984375 625.863281 921.160156 609.421875 900.519531 597.238281 C 879.875 585.046875 854.957031 577.257812 831.871094 583.75 M 914.820312 140.742188 C 850.246094 76.144531 762.832031 39.929688 671.492188 39.929688 C 579.59375 39.929688 493.191406 75.71875 428.210938 140.707031 C 363.226562 205.691406 327.4375 292.097656 327.4375 384 C 327.4375 475.894531 363.226562 562.292969 428.210938 627.285156 C 493.195312 692.265625 579.59375 728.054688 671.492188 728.054688 C 691.496094 728.054688 711.546875 726.324219 731.082031 722.90625 C 734.828125 722.257812 738.605469 721.535156 742.386719 720.746094 C 748.214844 719.527344 751.832031 713.765625 750.429688 707.984375 C 743.871094 667.28125 730.382812 614.46875 712.882812 563.707031 C 687.242188 489.335938 645.285156 490.773438 614.644531 491.847656 C 608.242188 492.0625 602.21875 492.273438 596.777344 491.824219 C 571.597656 489.722656 507.257812 494.507812 458.507812 443.371094 C 456.789062 441.570312 454.867188 437.929688 453.183594 433.460938 C 446.996094 417.035156 455.011719 398.65625 471.230469 391.9375 C 488.554688 384.753906 513.332031 375.472656 533.472656 367.929688 C 589.066406 347.105469 616.117188 336.527344 624.089844 329.5625 C 631 323.511719 634.675781 316.121094 638.242188 308.972656 C 643.863281 297.695312 650.871094 280.789062 667.457031 276.058594 C 697.382812 267.5 797.90625 259.46875 828.160156 300.414062 C 828.585938 300.996094 829.378906 301.371094 829.6875 303.066406 C 833.03125 321.601562 795.964844 373.578125 771.445312 407.984375 C 752.074219 435.15625 735.339844 458.617188 730.3125 473.359375 L 729.734375 475.058594 C 720.296875 502.65625 711.386719 528.742188 721.679688 548.964844 C 727.035156 559.46875 737.03125 567.058594 751.410156 571.511719 C 796.566406 585.480469 878.398438 557.65625 902.351562 520.15625 C 913.902344 502.089844 919.21875 502.222656 919.328125 502.203125 C 919.367188 502.203125 922.96875 502.539062 929.414062 515.429688 C 931.339844 519.28125 933.714844 525.65625 936.464844 533.035156 C 938.960938 539.71875 941.785156 547.289062 945.082031 555.210938 L 945.070312 555.21875 L 945.15625 555.394531 C 946.738281 559.191406 948.410156 563.058594 950.230469 566.96875 L 950.355469 566.765625 C 952.636719 571.753906 959.554688 572.207031 962.453125 567.554688 C 966.449219 561.148438 970.632812 554.195312 973.316406 549.273438 C 1000.957031 498.945312 1015.558594 441.792969 1015.558594 384 C 1015.558594 292.113281 979.785156 205.722656 914.820312 140.742188 Z M 676.554688 339.796875 C 688.625 339.796875 698.410156 349.585938 698.410156 361.660156 C 698.410156 373.726562 688.625 383.519531 676.554688 383.519531 C 664.480469 383.519531 654.691406 373.726562 654.691406 361.660156 C 654.691406 349.585938 664.480469 339.796875 676.554688 339.796875 " fill-opacity="1" fill-rule="nonzero"/></g></svg>